grf.mot
version=1
nRows=83
nColumns=19
inDegrees=yes
endheader
time	ground_force_vx	ground_force_vy	ground_force_vz	ground_force_px	ground_force_py	ground_force_pz	1_ground_force_vx	1_ground_force_vy	1_ground_force_vz	1_ground_force_px	1_ground_force_py	1_ground_force_pz	ground_torque_x	ground_torque_y	ground_torque_z	1_ground_torque_x	1_ground_torque_y	1_ground_torque_z	
0	4.00151	96.4822	21.7831	0.121901	0.010665	0.0341934	121.579	966.388	62.0005	-0.312336	-0.0273259	-0.13972	0	0.0614633	0	0	1.45398	0
0.001667	3.22243	104.833	22.7359	0.125662	0.010994	0.035724	123.537	969.157	61.3879	-0.316182	-0.0276623	-0.139939	0	0.0437261	0	0	1.36398	0
0.003333	2.36209	113.463	23.6725	0.129376	0.0113189	0.0372602	125.434	971.498	60.7176	-0.319994	-0.0279959	-0.140158	0	0.0240087	0	0	1.27024	0
0.005	1.41884	122.37	24.5902	0.133038	0.0116394	0.0388001	127.265	973.396	59.9898	-0.323766	-0.0283259	-0.140377	0	0.00228233	0	0	1.17279	0
0.006667	0.391178	131.549	25.4865	0.136644	0.0119548	0.0403417	129.028	974.84	59.2051	-0.327488	-0.0286515	-0.140594	0	-0.0214764	0	0	1.07168	0
0.008333	-0.72222	140.997	26.3586	0.140188	0.0122649	0.0418829	130.719	975.818	58.364	-0.331152	-0.0289721	-0.140808	0	-0.047285	0	0	0.966973	0
0.01	-1.92251	150.709	27.2041	0.143664	0.012569	0.0434217	132.335	976.319	57.4674	-0.334749	-0.0292867	-0.141016	0	-0.0751554	0	0	0.858734	0
0.011667	-3.21067	160.679	28.0204	0.147069	0.0128669	0.0449562	133.872	976.334	56.5159	-0.338269	-0.0295948	-0.141218	0	-0.105093	0	0	0.747042	0
0.013333	-4.58748	170.903	28.8049	0.150398	0.0131581	0.0464845	135.328	975.852	55.5108	-0.341705	-0.0298954	-0.141412	0	-0.137098	0	0	0.631984	0
0.015	-6.05354	181.375	29.5551	0.153646	0.0134423	0.0480044	136.7	974.867	54.4531	-0.345047	-0.0301877	-0.141595	0	-0.171163	0	0	0.51366	0
0.016667	-7.60924	192.087	30.2686	0.156808	0.0137189	0.0495142	137.984	973.369	53.3442	-0.348286	-0.0304711	-0.141767	0	-0.207274	0	0	0.392179	0
0.018333	-9.25478	203.035	30.9429	0.159881	0.0139878	0.0510119	139.179	971.354	52.1854	-0.351412	-0.0307447	-0.141925	0	-0.245413	0	0	0.267659	0
0.02	-10.9901	214.209	31.5758	0.162861	0.0142485	0.0524956	140.281	968.814	50.9783	-0.354418	-0.0310077	-0.142067	0	-0.285552	0	0	0.14023	0
0.021667	-12.8151	225.604	32.1649	0.165744	0.0145007	0.0539635	141.289	965.746	49.7246	-0.357295	-0.0312593	-0.142192	0	-0.327659	0	0	0.0100313	0
0.023333	-14.7292	237.21	32.708	0.168526	0.0147441	0.0554139	142.199	962.146	48.426	-0.360032	-0.0314988	-0.142297	0	-0.371694	0	0	-0.12279	0
0.025	-16.7318	249.021	33.2029	0.171204	0.0149784	0.0568449	143.01	958.011	47.0845	-0.362622	-0.0317254	-0.142381	0	-0.41761	0	0	-0.258075	0
0.026667	-18.8221	261.027	33.6477	0.173776	0.0152034	0.0582549	143.72	953.339	45.702	-0.365057	-0.0319384	-0.142442	0	-0.465354	0	0	-0.395657	0
0.028333	-20.9989	273.22	34.0404	0.176238	0.0154188	0.0596422	144.328	948.131	44.2807	-0.367327	-0.032137	-0.142478	0	-0.514868	0	0	-0.535361	0
0.03	-23.261	285.59	34.379	0.178588	0.0156244	0.0610054	144.831	942.385	42.8228	-0.369424	-0.0323205	-0.142487	0	-0.566083	0	0	-0.677003	0
0.031667	-25.6067	298.129	34.6618	0.180824	0.01582	0.0623428	145.228	936.105	41.3306	-0.371341	-0.0324882	-0.142467	0	-0.618929	0	0	-0.820389	0
0.033333	-28.0344	310.826	34.8873	0.182942	0.0160054	0.063653	145.518	929.291	39.8065	-0.37307	-0.0326394	-0.142416	0	-0.673326	0	0	-0.965322	0
0.035	-30.542	323.672	35.0537	0.184943	0.0161804	0.0649347	145.7	921.948	38.253	-0.374602	-0.0327735	-0.142331	0	-0.729188	0	0	-1.11159	0
0.036667	-33.1275	336.657	35.1597	0.186823	0.0163449	0.0661865	145.773	914.08	36.6727	-0.375931	-0.0328898	-0.142212	0	-0.786426	0	0	-1.25899	0
0.038333	-35.7884	349.771	35.2039	0.188582	0.0164988	0.0674073	145.736	905.693	35.0682	-0.37705	-0.0329877	-0.142057	0	-0.844941	0	0	-1.40728	0
0.04	-38.522	363.003	35.1853	0.190218	0.0166419	0.0685958	145.589	896.792	33.4421	-0.377952	-0.0330666	-0.141862	0	-0.904631	0	0	-1.55626	0
0.041667	-41.3256	376.342	35.1027	0.191731	0.0167743	0.069751	145.332	887.387	31.7973	-0.378631	-0.033126	-0.141628	0	-0.965389	0	0	-1.70567	0
0.043333	-44.1962	389.777	34.9552	0.19312	0.0168958	0.0708719	144.965	877.484	30.1365	-0.379081	-0.0331654	-0.141351	0	-1.0271	0	0	-1.8553	0
0.045	-47.1305	403.299	34.7419	0.194385	0.0170065	0.0719577	144.487	867.095	28.4626	-0.379296	-0.0331842	-0.141031	0	-1.08965	0	0	-2.00489	0
0.046667	-50.1251	416.896	34.4624	0.195525	0.0171062	0.0730074	143.899	856.228	26.7784	-0.379272	-0.033182	-0.140665	0	-1.15291	0	0	-2.15421	0
0.048333	-53.1765	430.556	34.1159	0.196541	0.0171951	0.0740204	143.202	844.896	25.0869	-0.379002	-0.0331585	-0.140252	0	-1.21677	0	0	-2.30299	0
0.05	-56.2809	444.269	33.7023	0.197432	0.0172731	0.074996	142.396	833.111	23.391	-0.378484	-0.0331132	-0.139791	0	-1.28108	0	0	-2.45101	0
0.051667	-59.4343	458.024	33.2212	0.198201	0.0173403	0.0759336	141.483	820.886	21.6935	-0.377714	-0.0330458	-0.13928	0	-1.34571	0	0	-2.59799	0
0.053333	-62.6326	471.809	32.6725	0.198846	0.0173968	0.0768329	140.463	808.235	19.9975	-0.376687	-0.032956	-0.138717	0	-1.41053	0	0	-2.74368	0
0.055	-65.8716	485.613	32.0563	0.19937	0.0174426	0.0776934	139.338	795.173	18.3059	-0.375402	-0.0328435	-0.138102	0	-1.4754	0	0	-2.88784	0
0.056667	-69.1469	499.425	31.3729	0.199773	0.0174779	0.0785149	138.109	781.716	16.6215	-0.373856	-0.0327083	-0.137433	0	-1.54018	0	0	-3.03021	0
0.058333	-72.4539	513.234	30.6225	0.200057	0.0175027	0.0792971	136.778	767.88	14.9473	-0.372047	-0.03255	-0.136709	0	-1.60472	0	0	-3.17054	0
0.06	-75.788	527.029	29.8056	0.200224	0.0175173	0.0800399	135.348	753.682	13.2862	-0.369974	-0.0323686	-0.135929	0	-1.66888	0	0	-3.30856	0
0.061667	-79.1444	540.799	28.923	0.200275	0.0175218	0.0807434	133.819	739.141	11.6409	-0.367637	-0.0321641	-0.135093	0	-1.73251	0	0	-3.44404	0
0.063333	-82.5183	554.533	27.9753	0.200212	0.0175163	0.0814075	132.195	724.274	10.0142	-0.365034	-0.0319364	-0.134199	0	-1.79546	0	0	-3.57672	0
0.065	-85.9046	568.219	26.9635	0.200037	0.017501	0.0820325	130.478	709.101	8.40896	-0.362167	-0.0316856	-0.133247	0	-1.8576	0	0	-3.70636	0
0.066667	-89.2983	581.848	25.8887	0.199753	0.0174761	0.0826185	128.671	693.642	6.82774	-0.359036	-0.0314117	-0.132236	0	-1.91877	0	0	-3.83272	0
0.068333	-92.6944	595.409	24.7519	0.199362	0.0174419	0.0831659	126.775	677.917	5.27318	-0.355644	-0.0311149	-0.131166	0	-1.97884	0	0	-3.95556	0
0.07	-96.0875	608.891	23.5546	0.198866	0.0173986	0.0836751	124.796	661.945	3.74781	-0.351991	-0.0307953	-0.130037	0	-2.03764	0	0	-4.07466	0
0.071667	-99.4725	622.284	22.2982	0.198269	0.0173463	0.0841466	122.734	645.75	2.2541	-0.348082	-0.0304533	-0.128848	0	-2.09506	0	0	-4.18979	0
0.073333	-102.844	635.578	20.9842	0.197573	0.0172854	0.0845808	120.595	629.351	0.794408	-0.343918	-0.030089	-0.1276	0	-2.15094	0	0	-4.30074	0
0.075	-106.197	648.763	19.6144	0.19678	0.017216	0.0849785	118.38	612.771	-0.628981	-0.339504	-0.0297028	-0.126292	0	-2.20515	0	0	-4.40729	0
0.076667	-109.526	661.83	18.1905	0.195894	0.0171385	0.0853403	116.095	596.031	-2.01389	-0.334844	-0.0292951	-0.124925	0	-2.25756	0	0	-4.50923	0
0.078333	-112.826	674.768	16.7146	0.194918	0.0170531	0.0856669	113.741	579.155	-3.35823	-0.329943	-0.0288664	-0.123499	0	-2.30805	0	0	-4.60639	0
0.08	-116.092	687.569	15.1885	0.193855	0.0169601	0.0859592	111.324	562.164	-4.66004	-0.324807	-0.028417	-0.122015	0	-2.35647	0	0	-4.69857	0
0.081667	-119.317	700.224	13.6144	0.192709	0.0168598	0.0862181	108.848	545.081	-5.91747	-0.319442	-0.0279476	-0.120473	0	-2.40272	0	0	-4.78559	0
0.083333	-122.498	712.723	11.9946	0.191481	0.0167525	0.0864444	106.315	527.929	-7.12876	-0.313853	-0.0274586	-0.118874	0	-2.44669	0	0	-4.8673	0
0.085	-125.629	725.059	10.3314	0.190177	0.0166383	0.0866392	103.73	510.73	-8.2923	-0.308049	-0.0269508	-0.117218	0	-2.48825	0	0	-4.94354	0
0.086667	-128.705	737.222	8.62714	0.188798	0.0165177	0.0868036	101.098	493.507	-9.40661	-0.302036	-0.0264247	-0.115508	0	-2.52732	0	0	-5.01416	0
0.088333	-131.721	749.206	6.8843	0.187349	0.0163909	0.0869385	98.4226	476.283	-10.4703	-0.295823	-0.0258811	-0.113744	0	-2.56379	0	0	-5.07903	0
0.09	-134.672	761.002	5.10544	0.185832	0.0162582	0.0870452	95.7079	459.079	-11.4822	-0.289417	-0.0253208	-0.111928	0	-2.59758	0	0	-5.13803	0
0.091667	-137.553	772.602	3.29318	0.184252	0.0161199	0.0871248	92.9585	441.919	-12.4411	-0.282829	-0.0247444	-0.11006	0	-2.6286	0	0	-5.19105	0
0.093333	-140.36	784	1.45017	0.18261	0.0159764	0.0871784	90.1787	424.824	-13.3461	-0.276068	-0.0241528	-0.108143	0	-2.65677	0	0	-5.238	0
0.095	-143.088	795.189	-0.420863	0.180912	0.0158277	0.0872074	87.373	407.815	-14.1964	-0.269142	-0.0235469	-0.106178	0	-2.68204	0	0	-5.2788	0
0.096667	-145.732	806.162	-2.31715	0.179159	0.0156744	0.0872129	84.5458	390.914	-14.9913	-0.262063	-0.0229275	-0.104167	0	-2.70434	0	0	-5.31337	0
0.098333	-148.289	816.912	-4.2359	0.177355	0.0155165	0.0871963	81.7015	374.143	-15.7302	-0.25484	-0.0222956	-0.102112	0	-2.72362	0	0	-5.34166	0
0.1	-150.755	827.434	-6.17428	0.175503	0.0153545	0.0871588	78.8447	357.521	-16.4127	-0.247485	-0.0216522	-0.100014	0	-2.73984	0	0	-5.36362	0
0.101667	-153.125	837.722	-8.12942	0.173607	0.0151886	0.0871017	75.9796	341.068	-17.0386	-0.240009	-0.0209981	-0.0978772	0	-2.75297	0	0	-5.37923	0
0.103333	-155.395	847.771	-10.0985	0.171669	0.0150191	0.0870265	73.1108	324.805	-17.6078	-0.232423	-0.0203344	-0.0957023	0	-2.76298	0	0	-5.38846	0
0.105	-157.563	857.574	-12.0785	0.169692	0.0148461	0.0869343	70.2426	308.75	-18.1201	-0.224739	-0.0196621	-0.0934922	0	-2.76986	0	0	-5.39133	0
0.106667	-159.625	867.128	-14.0667	0.16768	0.0146701	0.0868265	67.3794	292.921	-18.5759	-0.216968	-0.0189822	-0.0912491	0	-2.7736	0	0	-5.38783	0
0.108333	-161.578	876.428	-16.0601	0.165634	0.0144911	0.0867044	64.5254	277.337	-18.9754	-0.209123	-0.0182959	-0.0889758	0	-2.77421	0	0	-5.378	0
0.11	-163.418	885.47	-18.056	0.163559	0.0143096	0.0865695	61.6848	262.014	-19.3189	-0.201216	-0.0176041	-0.0866747	0	-2.7717	0	0	-5.36187	0
0.111667	-165.143	894.249	-20.0513	0.161456	0.0141256	0.0864229	58.8619	246.969	-19.6071	-0.19326	-0.016908	-0.0843486	0	-2.76609	0	0	-5.3395	0
0.113333	-166.75	902.762	-22.0434	0.159327	0.0139394	0.086266	56.0607	232.217	-19.8406	-0.185266	-0.0162086	-0.0820002	0	-2.75741	0	0	-5.31095	0
0.115	-168.238	911.005	-24.0293	0.157177	0.0137512	0.0861	53.2851	217.774	-20.0202	-0.177247	-0.015507	-0.0796324	0	-2.7457	0	0	-5.27631	0
0.116667	-169.604	918.976	-26.0064	0.155005	0.0135612	0.0859263	50.5391	203.653	-20.1468	-0.169216	-0.0148044	-0.0772481	0	-2.73102	0	0	-5.23566	0
0.118333	-170.847	926.67	-27.972	0.152816	0.0133697	0.0857461	47.8264	189.868	-20.2215	-0.161186	-0.0141018	-0.0748501	0	-2.71341	0	0	-5.18912	0
0.12	-171.964	934.087	-29.9233	0.150611	0.0131768	0.0855606	45.1507	176.431	-20.2454	-0.153168	-0.0134004	-0.0724414	0	-2.69296	0	0	-5.1368	0
0.121667	-172.955	941.223	-31.8578	0.148392	0.0129826	0.085371	42.5155	163.354	-20.2198	-0.145176	-0.0127011	-0.070025	0	-2.66974	0	0	-5.07883	0
0.123333	-173.818	948.076	-33.7728	0.146161	0.0127874	0.0851784	39.9242	150.647	-20.146	-0.137221	-0.0120052	-0.067604	0	-2.64383	0	0	-5.01535	0
0.125	-174.552	954.644	-35.666	0.143919	0.0125913	0.084984	37.3802	138.321	-20.0255	-0.129317	-0.0113137	-0.0651813	0	-2.61532	0	0	-4.94652	0
0.126667	-175.158	960.926	-37.5349	0.141669	0.0123945	0.0847889	34.8864	126.384	-19.8598	-0.121474	-0.0106275	-0.0627601	0	-2.58432	0	0	-4.87251	0
0.128333	-175.634	966.921	-39.3772	0.139412	0.012197	0.0845942	32.4459	114.844	-19.6506	-0.113706	-0.00994788	-0.0603433	0	-2.55094	0	0	-4.79349	0
0.13	-175.98	972.627	-41.1906	0.137149	0.011999	0.0844008	30.0616	103.709	-19.3996	-0.106023	-0.00927572	-0.057934	0	-2.51528	0	0	-4.70965	0
0.131667	-176.197	978.044	-42.9729	0.134881	0.0118006	0.0842097	27.7359	92.9837	-19.1085	-0.0984376	-0.00861205	-0.0555353	0	-2.47748	0	0	-4.62117	0
0.133333	-176.285	983.17	-44.7221	0.132611	0.0116019	0.0840219	25.4715	82.6747	-18.7793	-0.0909603	-0.00795786	-0.0531501	0	-2.43767	0	0	-4.52828	0
0.135	-176.245	988.005	-46.4361	0.130338	0.0114031	0.0838383	23.2707	72.7857	-18.4138	-0.083602	-0.00731409	-0.0507813	0	-2.39597	0	0	-4.43117	0
0.136667	-176.077	992.55	-48.1131	0.128064	0.0112041	0.0836596	21.1355	63.3202	-18.0141	-0.0763734	-0.00668167	-0.048432	0	-2.35254	0	0	-4.33008	0
